<?xml version="1.0" standalone="no"?>
<!DOCTYPE svg PUBLIC "-//W3C//DTD SVG 20010904//EN"
 "http://www.w3.org/TR/2001/REC-SVG-20010904/DTD/svg10.dtd">
<svg version="1.0" xmlns="http://www.w3.org/2000/svg"
 width="512.000000pt" height="512.000000pt" viewBox="0 0 512.000000 512.000000"
 preserveAspectRatio="xMidYMid meet">

<g transform="translate(0.000000,512.000000) scale(0.100000,-0.100000)"
fill="#000000" stroke="none">
<path d="M2365 4899 c-382 -31 -768 -164 -1090 -376 -562 -370 -935 -953
-1037 -1617 -16 -108 -21 -189 -22 -346 0 -285 29 -473 116 -738 191 -583 610
-1072 1157 -1351 352 -180 670 -256 1071 -256 401 0 719 76 1071 256 629 321
1086 920 1228 1609 37 176 46 273 45 480 -1 387 -72 695 -239 1035 -232 473
-598 838 -1070 1070 -389 191 -798 269 -1230 234z m374 -914 c39 -19 55 -60
81 -198 18 -97 19 -124 10 -153 -30 -90 -169 -98 -204 -11 -8 18 -24 87 -36
153 -21 106 -22 126 -10 154 25 60 99 86 159 55z m928 -210 c55 -55 46 -94
-51 -234 -43 -61 -86 -115 -96 -121 -28 -15 -93 -12 -118 6 -27 19 -52 65 -52
98 0 27 125 223 167 262 19 18 37 24 70 24 38 0 50 -5 80 -35z m-1599 -364
c102 -67 122 -85 132 -116 30 -92 -57 -178 -144 -141 -52 22 -224 144 -243
172 -24 38 -12 102 27 137 53 48 89 40 228 -52z m1022 42 c36 -8 106 -34 155
-58 161 -78 279 -198 356 -361 52 -109 70 -195 70 -323 0 -195 -63 -362 -190
-509 l-29 -34 -39 29 c-22 15 -64 39 -94 53 -30 13 -56 26 -58 27 -3 2 14 22
37 46 174 178 206 469 74 673 -124 191 -354 289 -574 243 -122 -25 -260 -116
-328 -214 -29 -42 -31 -43 -67 -34 -21 4 -73 9 -116 11 -42 2 -77 7 -77 12 0
20 67 130 115 188 117 142 300 242 489 268 76 10 190 3 276 -17z m1072 -433
c39 -30 53 -73 40 -119 -18 -58 -40 -71 -164 -97 -162 -33 -192 -32 -234 10
-45 45 -47 101 -6 147 24 27 42 34 137 54 142 30 195 31 227 5z m-1800 -114
c307 -60 540 -279 608 -571 l17 -70 67 -7 c136 -16 252 -74 347 -176 283 -302
147 -785 -256 -909 -56 -17 -112 -18 -865 -18 -737 0 -810 1 -870 18 -301 81
-503 340 -502 642 0 184 63 337 191 466 110 110 237 173 389 194 49 6 54 10
74 48 29 57 96 143 151 194 173 160 424 233 649 189z m1509 -717 c57 -39 114
-82 127 -95 26 -29 29 -81 7 -123 -18 -36 -76 -64 -114 -56 -34 7 -238 146
-259 176 -32 47 -12 127 40 156 51 28 89 17 199 -58z"/>
<path d="M2096 2674 c-176 -42 -329 -183 -390 -358 l-24 -68 -113 -1 c-105 -2
-119 -4 -179 -33 -134 -64 -227 -187 -249 -332 -28 -180 76 -377 242 -456 97
-45 134 -47 937 -44 l755 3 56 27 c115 57 179 153 187 278 13 234 -190 385
-438 327 -36 -9 -72 -18 -81 -22 -15 -6 -16 3 -12 82 10 175 -41 315 -158 438
-140 147 -338 206 -533 159z"/>
</g>
</svg>
